#!OML:ASF X:\für Bonn\!DataBase\2005_08_12_Daniel\c3d\Daniel.ASF
:FULLY-SPECIFIED
:DEGREES
475
root 28.3953 17.1622 -27.9065 26.1818 -80.3983 -27.2251
lowerback 14.9539 0.838535 5.20961
upperback 3.00763 1.66964 -2.02607
thorax -4.96294 0.688012 -5.41778
lowerneck 2.59157 2.93106 -7.63904
upperneck 6.574 3.8872 -6.06284
head 1.59512 1.56044 -0.607389
rclavicle -7.95139e-015 1.19271e-014
rhumerus -29.3612 -6.53993 -93.8925
rradius 24.9123
rwrist 18.1211
rhand -18.6607 18.8532
rfingers 7.12502
rthumb 7.63263 -10.9891
lclavicle -7.95139e-015 1.19271e-014
lhumerus -32.5971 29.6244 76.8904
lradius 22.7229
lwrist -26.82
lhand -15.3269 -12.6248
lfingers 7.12502
lthumb 10.8495 17.0749
rfemur -13.8919 -8.04369 20.4428
rtibia 56.8373
rfoot -22.823 -15.0789
rtoes -14.8667
lfemur -9.75017 -5.99759 -24.3313
ltibia 45.9154
lfoot -35.313 6.98975
ltoes -5.51466
476
root 28.3387 17.1468 -27.8753 25.817 -80.3384 -27.0172
lowerback 14.9063 0.773876 5.22837
upperback 3.0243 1.585 -2.02213
thorax -4.92983 0.647732 -5.40679
lowerneck 2.41339 3.00156 -7.85718
upperneck 6.82908 4.01288 -6.14151
head 1.70588 1.59583 -0.592797
rclavicle -2.28602e-014 1.59028e-015
rhumerus -29.5983 -7.75109 -93.1942
rradius 24.0713
rwrist 19.2808
rhand -18.8487 18.3812
rfingers 7.12502
rthumb 7.45117 -11.4676
lclavicle -2.28602e-014 1.59028e-015
lhumerus -31.7746 27.1371 78.2467
lradius 23.4874
lwrist -25.7205
lhand -15.8433 -12.9024
lfingers 7.12502
lthumb 10.3513 16.8228
rfemur -15.214 -7.7256 20.4685
rtibia 58.9261
rfoot -20.4671 -16.0353
rtoes -15.7612
lfemur -9.25727 -5.95255 -24.4623
ltibia 45.7688
lfoot -35.4414 6.95411
ltoes -5.47527
477
root 28.2787 17.1353 -27.8427 25.2133 -80.2732 -26.5806
lowerback 14.8309 0.698262 5.20256
upperback 3.07795 1.47665 -2.00613
thorax -4.84692 0.598559 -5.3513
lowerneck 2.19202 3.07567 -8.08433
upperneck 7.07027 4.15074 -6.26841
head 1.82121 1.63491 -0.59102
rclavicle -1.90833e-014 2.38542e-015
rhumerus -29.8394 -8.89685 -92.4532
rradius 23.2637
rwrist 20.3969
rhand -19.1507 17.8591
rfingers 7.12502
rthumb 7.15971 -11.9998
lclavicle -1.90833e-014 2.38542e-015
lhumerus -31.0398 24.8448 79.4563
lradius 24.2372
lwrist -24.6833
lhand -16.4003 -13.016
lfingers 7.12502
lthumb 9.81396 16.7353
rfemur -16.551 -7.48234 20.4621
rtibia 60.983
rfoot -17.9565 -16.8136
rtoes -16.4039
lfemur -8.70271 -5.92972 -24.636
ltibia 45.5642
lfoot -35.5878 6.92548
ltoes -5.43323
478
root 28.2151 17.1286 -27.8103 24.7025 -80.176 -26.2506
lowerback 14.7677 0.619333 5.20142
upperback 3.13673 1.36839 -1.98327
thorax -4.76456 0.549075 -5.3032
lowerneck 1.93176 3.13914 -8.28325
upperneck 7.31879 4.28286 -6.39605
head 1.94702 1.67008 -0.593224
rclavicle 4.81059e-014 0
rhumerus -30.1419 -9.95839 -91.6979
rradius 22.5346
rwrist 21.4075
rhand -19.4699 17.2956
rfingers 7.12502
rthumb 6.85154 -12.5735
lclavicle 4.81059e-014 0
lhumerus -30.3783 22.6148 80.5178
lradius 24.919
lwrist -23.6289
lhand -17.0051 -13.0032
lfingers 7.12502
lthumb 9.23042 16.7748
rfemur -17.8462 -7.20327 20.5037
rtibia 62.9422
rfoot -15.609 -17.2673
rtoes -16.7957
lfemur -8.07838 -5.9284 -24.783
ltibia 45.2855
lfoot -35.697 6.95045
ltoes -5.47609
479
root 28.1473 17.1263 -27.7782 24.0726 -80.0566 -25.7901
lowerback 14.6805 0.529804 5.17921
upperback 3.19617 1.24094 -1.97734
thorax -4.67095 0.490705 -5.25729
lowerneck 1.61194 3.20014 -8.37704
upperneck 7.61864 4.42839 -6.56683
head 2.10432 1.70879 -0.624674
rclavicle 2.127e-014 7.95139e-016
rhumerus -30.4965 -11.0047 -90.9565
rradius 21.8517
rwrist 22.32
rhand -19.8137 16.7004
rfingers 7.12502
rthumb 6.5197 -13.1792
lclavicle 2.127e-014 7.95139e-016
lhumerus -29.8029 20.5799 81.3763
lradius 25.5486
lwrist -22.6471
lhand -17.5113 -12.9189
lfingers 7.12502
lthumb 8.74199 16.88
rfemur -19.1083 -6.90782 20.5351
rtibia 64.768
rfoot -13.4339 -17.2656
rtoes -17.1577
lfemur -7.41679 -5.96045 -24.9286
ltibia 44.9251
lfoot -35.7762 6.90412
ltoes -5.31599
480
root 28.076 17.1281 -27.7476 23.3994 -79.8785 -25.2784
lowerback 14.5625 0.41735 5.13786
upperback 3.27365 1.08001 -1.94334
thorax -4.54661 0.417372 -5.16362
lowerneck 1.25696 3.27228 -8.54286
upperneck 7.91915 4.59246 -6.67802
head 2.26632 1.75454 -0.624524
rclavicle -6.55989e-015 2.54444e-014
rhumerus -30.8429 -11.881 -90.1927
rradius 21.168
rwrist 23.0172
rhand -20.1132 16.2077
rfingers 7.12502
rthumb 6.23053 -13.6806
lclavicle -6.55989e-015 2.54444e-014
lhumerus -29.2231 18.8391 82.0943
lradius 26.0732
lwrist -21.8314
lhand -17.9594 -12.6979
lfingers 7.12502
lthumb 8.3095 17.1186
rfemur -20.301 -6.56842 20.5911
rtibia 66.3986
rfoot -11.5372 -16.793
rtoes -17.1927
lfemur -6.7193 -6.00795 -25.0313
ltibia 44.4987
lfoot -35.8407 6.77035
ltoes -5.18527
481
root 28.0004 17.1322 -27.7183 22.7439 -79.6644 -24.7911
lowerback 14.4357 0.298761 5.09759
upperback 3.34538 0.910921 -1.91449
thorax -4.42412 0.339723 -5.07527
lowerneck 0.988185 3.34784 -8.63579
upperneck 8.18422 4.75055 -6.80735
head 2.40441 1.802 -0.6434
rclavicle -2.38542e-015 1.27222e-014
rhumerus -31.2777 -12.8225 -89.3836
rradius 20.5366
rwrist 23.723
rhand -20.3716 15.7664
rfingers 7.12502
rthumb 5.98108 -14.1292
lclavicle -2.38542e-015 1.27222e-014
lhumerus -28.6602 17.3659 82.6226
lradius 26.4454
lwrist -21.1997
lhand -18.2477 -12.4612
lfingers 7.12502
lthumb 8.03128 17.3662
rfemur -21.3711 -6.17443 20.6582
rtibia 67.802
rfoot -10.0137 -15.7441
rtoes -16.5847
lfemur -5.98417 -6.07302 -25.1033
ltibia 44.0325
lfoot -35.8932 6.6235
ltoes -5.00949
482
root 27.9218 17.1384 -27.6897 22.102 -79.3995 -24.3204
lowerback 14.2821 0.150153 5.06891
upperback 3.45087 0.701056 -1.88822
thorax -4.25566 0.243445 -4.98892
lowerneck 0.752797 3.43792 -8.66935
upperneck 8.37798 4.92112 -6.95944
head 2.51538 1.86153 -0.67966
rclavicle -1.19271e-014 2.3059e-014
rhumerus -31.6814 -13.8762 -88.5183
rradius 19.9051
rwrist 24.4615
rhand -20.5643 15.4393
rfingers 7.12502
rthumb 5.79501 -14.4614
lclavicle -1.19271e-014 2.3059e-014
lhumerus -28.0493 16.2521 82.9821
lradius 26.7439
lwrist -20.7713
lhand -18.3247 -12.1013
lfingers 7.12502
lthumb 7.95692 17.729
rfemur -22.3286 -5.77373 20.7543
rtibia 68.9592
rfoot -8.8102 -14.2655
rtoes -15.5694
lfemur -5.23043 -6.14159 -25.1437
ltibia 43.5464
lfoot -35.9014 6.44549
ltoes -4.94879
483
root 27.8421 17.143 -27.6629 21.415 -79.1137 -23.8029
lowerback 14.1436 0.0202454 4.98676
upperback 3.53332 0.512129 -1.82399
thorax -4.11806 0.156558 -4.83689
lowerneck 0.815514 3.51228 -8.73193
upperneck 8.41748 5.01891 -7.11185
head 2.5207 1.89916 -0.718223
rclavicle 2.42517e-014 -3.18055e-015
rhumerus -32.1755 -14.904 -87.537
rradius 19.3336
rwrist 25.0745
rhand -20.6442 15.2101
rfingers 7.12502
rthumb 5.71783 -14.6927
lclavicle 2.42517e-014 -3.18055e-015
lhumerus -27.4097 15.4881 83.2526
lradius 26.8304
lwrist -20.596
lhand -18.2599 -11.8216
lfingers 7.12502
lthumb 8.01948 18.0063
rfemur -23.1957 -5.40518 20.8748
rtibia 69.8665
rfoot -7.89959 -12.4651
rtoes -14.6855
lfemur -4.48344 -6.22261 -25.1723
ltibia 43.0772
lfoot -35.895 6.24473
ltoes -4.78212
484
root 27.7615 17.1472 -27.6357 20.7101 -78.7963 -23.2609
lowerback 14.0054 -0.129107 4.89423
upperback 3.61379 0.296614 -1.75532
thorax -3.98512 0.0561076 -4.67081
lowerneck 0.959451 3.6123 -8.71786
upperneck 8.43213 5.14002 -7.31805
head 2.50664 1.95209 -0.787917
rclavicle 7.7526e-015 7.15625e-015
rhumerus -32.7186 -15.893 -86.4967
rradius 18.7862
rwrist 25.6609
rhand -20.6666 15.0988
rfingers 7.12502
rthumb 5.69624 -14.8046
lclavicle 7.7526e-015 7.15625e-015
lhumerus -26.7094 15.1403 83.3853
lradius 26.738
lwrist -20.7049
lhand -18.0395 -11.5782
lfingers 7.12502
lthumb 8.23218 18.2414
rfemur -23.9954 -5.16757 21.0784
rtibia 70.5123
rfoot -7.12831 -10.5367
rtoes -14.8113
lfemur -3.7635 -6.32216 -25.197
ltibia 42.6395
lfoot -35.8929 6.01876
ltoes -4.74884
